PathFileType  4	(X/Y/Z) C:\Users\antoi\Documents\MyRepositories\mobilecap\ResultsAnalysis
DataRate	CameraRate	NumFrames	NumMarkers	Units	OrigDataRate	OrigDataStartFrame	OrigNumFrames
100.0	100.0	4	51	mm	100.0	72	142
Frame#	Time	r_knee			r_shank_antsup			r_ankle			r_calc			r_5meta			r_toe			L_knee			L_shank_antsup			L_ankle			L_calc			L_5meta			L_toe			r_sh2			r_sh3			r_sh4			L_sh2			L_sh3			r_thigh1			r_thigh2			r_thigh3			r_thigh4			r_thigh5			L_thigh1			L_thigh2			L_thigh3			L_thigh4			r.ASIS			r.PSIS			L.ASIS			L.PSIS			C7			R_Shoulder			L_Shoulder			R_Sternum			L_Sternum			R_humerus			R_elbow_med			R_elbow_lat			R_forearm			R_wrist_radius			R_wrist_ulna			L_humerus			L_elbow_med			L_elbow_lat			L_forearm			L_wrist_radius			L_wrist_ulna			R_HJC			L_HJC			R_HJC_reg			L_HJC_reg			
		X1	Y1	Z1	X2	Y2	Z2	X3	Y3	Z3	X4	Y4	Z4	X5	Y5	Z5	X6	Y6	Z6	X7	Y7	Z7	X8	Y8	Z8	X9	Y9	Z9	X10	Y10	Z10	X11	Y11	Z11	X12	Y12	Z12	X13	Y13	Z13	X14	Y14	Z14	X15	Y15	Z15	X16	Y16	Z16	X17	Y17	Z17	X18	Y18	Z18	X19	Y19	Z19	X20	Y20	Z20	X21	Y21	Z21	X22	Y22	Z22	X23	Y23	Z23	X24	Y24	Z24	X25	Y25	Z25	X26	Y26	Z26	X27	Y27	Z27	X28	Y28	Z28	X29	Y29	Z29	X30	Y30	Z30	X31	Y31	Z31	X32	Y32	Z32	X33	Y33	Z33	X34	Y34	Z34	X35	Y35	Z35	X36	Y36	Z36	X37	Y37	Z37	X38	Y38	Z38	X39	Y39	Z39	X40	Y40	Z40	X41	Y41	Z41	X42	Y42	Z42	X43	Y43	Z43	X44	Y44	Z44	X45	Y45	Z45	X46	Y46	Z46	X47	Y47	Z47	X48	Y48	Z48	X49	Y49	Z49	X50	Y50	Z50	X51	Y51	Z51	

72	0.71000000	670.84464	454.22098	-69.35399	652.20116	374.01053	-86.17341	353.95960	209.30714	-102.68939	289.31788	238.13843	-145.86391	372.34873	91.89367	-67.92111	430.77107	73.64236	-115.74194	865.79346	497.59506	-375.34484	911.41210	407.98370	-380.00831	864.85213	96.63167	-371.53408	797.02293	62.81017	-329.01092	973.05008	42.61666	-403.29942	1011.37428	68.20393	-346.13959	551.28990	317.59695	-66.83876	609.14737	439.09537	-57.94494	513.23690	380.43003	-62.72020	820.56053	412.53183	-388.92957	826.24165	290.75503	-398.61110	766.36541	762.56170	-48.32868	754.56629	650.56585	-53.58202	695.57053	633.21190	-29.77425	653.44570	771.87029	-32.98265	643.49886	655.80482	-44.20117	805.11425	760.41188	-417.37441	860.33292	634.80747	-395.23250	704.02718	718.79206	-385.11004	762.94081	591.30226	-373.85124	790.66048	946.37155	-84.05583	604.56713	975.72174	-175.25607	810.73867	939.64108	-335.15863	600.91016	983.18082	-276.07630	611.87964	1388.55429	-324.11069	739.73684	1400.30398	-162.78910	662.68360	1291.60978	-490.04672	748.37358	1348.03293	-313.52478	749.46358	1333.38183	-352.69902	786.56928	1293.66749	-73.23030	760.80762	1074.88061	-27.04507	802.41328	1113.94967	20.17000	920.54805	1042.17270	-22.07490	1016.89703	950.91273	-55.26714	1009.21027	935.06593	-24.46582	670.14257	1167.81093	-525.84592	626.43495	948.95734	-429.47269	636.58684	958.86569	-507.37190	698.80390	861.48142	-511.32823	724.44948	707.04721	-513.78465	692.99803	703.54263	-528.48940	717.98284	863.29035	-113.77940	731.33664	864.01632	-319.80193	735.47195	857.69381	-122.80803	729.46216	869.94962	-288.54868	
73	0.72000000	693.90274	452.15052	-69.31907	673.59836	372.91028	-86.17364	370.18562	218.64698	-105.42517	307.61061	249.07615	-150.54738	383.77720	101.38536	-68.03499	442.44994	80.02855	-114.22119	876.34938	497.78276	-376.55307	919.81810	406.61889	-381.33426	865.58001	96.70570	-371.42450	797.06975	62.96195	-328.96135	973.12175	42.43457	-403.79818	1011.33554	67.06042	-346.22142	570.63805	320.04827	-67.80888	632.36968	439.56979	-58.91190	534.68610	384.00118	-64.78059	829.05712	413.21816	-390.38352	831.75921	291.25170	-399.50725	780.74986	762.47029	-49.19986	772.18339	650.02107	-53.97213	713.41669	631.18004	-30.39474	667.58480	768.74916	-34.52942	660.93363	652.39304	-45.11890	816.58632	761.03089	-418.69956	871.65794	635.26721	-396.68903	715.34529	719.54700	-387.59304	773.84810	591.93956	-376.12099	801.73164	945.57651	-85.75551	615.31531	974.14472	-175.21766	821.55488	939.80063	-336.69770	611.44653	982.50124	-276.09869	624.52912	1387.55392	-328.34202	752.01289	1400.02835	-166.59934	676.66922	1288.38143	-493.16656	760.86455	1346.36734	-316.81982	761.96597	1331.40219	-355.96873	797.74192	1293.96463	-75.69498	769.88615	1075.95244	-26.55774	811.39784	1115.39503	20.21581	929.18216	1042.28345	-20.68235	1025.06810	950.03153	-52.48247	1017.06776	934.53327	-21.57841	685.96943	1164.42889	-528.10321	642.49663	945.70226	-431.07230	653.56609	955.39811	-508.81808	716.07736	858.40560	-511.87512	742.77564	703.98646	-513.63482	711.59191	700.24150	-528.54398	729.66933	862.15164	-115.12768	742.10960	863.91468	-321.19879	747.22397	856.14126	-125.17118	740.87821	869.84152	-290.65561	
74	0.73000000	716.69153	450.93466	-69.38345	695.10515	372.60835	-86.05913	387.57432	227.43855	-108.23343	326.72167	258.66015	-155.25475	397.57180	110.82083	-68.06280	456.41278	86.80880	-112.76018	886.05551	497.65846	-377.71151	927.58418	405.10701	-382.67732	866.19258	96.76151	-371.34183	797.06816	63.05714	-328.93254	973.16812	42.28705	-404.20382	1011.34711	66.21832	-346.31968	590.39615	322.94429	-68.91189	655.44614	440.75983	-60.26061	556.30130	387.92537	-67.16795	836.98756	413.73064	-391.72534	836.87627	291.62280	-400.32051	794.72734	762.87014	-49.93284	789.45877	650.04371	-54.36773	730.84588	629.81043	-31.07078	681.42046	766.12182	-36.00619	678.05713	649.70346	-46.14534	827.52342	761.38245	-419.98808	882.21696	635.35174	-398.21680	726.07849	720.19149	-389.77092	784.05056	592.33977	-378.13805	812.62754	944.87030	-87.39613	625.79943	972.62010	-175.11605	832.25898	940.06118	-338.20884	621.84969	981.77645	-276.06548	636.98895	1386.75801	-332.29055	764.13125	1399.73404	-170.08498	690.40576	1285.42962	-496.04928	773.17497	1344.81793	-319.83531	774.29724	1329.57566	-358.95217	808.68584	1294.18780	-77.90805	778.77243	1076.94657	-26.03312	820.21989	1116.75422	20.29250	937.60618	1042.26775	-19.16460	1032.98334	949.00969	-49.47609	1024.66137	933.86427	-18.47669	701.71739	1161.35611	-530.11183	658.69686	942.65000	-432.57689	670.71846	952.18755	-510.13475	733.60933	855.68495	-512.22210	761.54883	701.28197	-513.37156	730.69762	697.26076	-528.54424	741.21863	861.08154	-116.41716	752.76755	863.86993	-322.53251	758.68684	854.78600	-127.48804	752.21978	869.77001	-292.75321	
75	0.74000000	739.14394	450.61232	-69.52477	716.70747	373.07692	-85.83569	406.13688	235.35073	-110.93866	346.54412	266.80093	-159.57683	413.75962	119.60530	-68.23041	472.64474	93.50751	-111.76365	894.87780	497.25882	-378.77532	934.70399	403.53883	-383.89336	866.72639	96.79579	-371.27776	797.05792	63.10776	-328.92071	973.21367	42.14778	-404.50759	1011.41087	65.60590	-346.41534	610.55330	326.17732	-70.06990	678.33745	442.59176	-61.89541	578.03325	392.06847	-69.73274	844.32475	414.07306	-392.92985	841.63054	291.87787	-401.04594	808.31085	763.78915	-50.56374	806.35971	650.67844	-54.75686	747.85150	629.12439	-31.79371	694.94491	764.03970	-37.47533	694.86743	647.79243	-47.25545	837.86182	761.49821	-421.17958	891.93719	635.10570	-399.70505	736.19626	720.73139	-391.42061	793.50847	592.53771	-379.77983	823.31919	944.40998	-88.87833	636.06544	971.31624	-175.11248	842.87262	940.41240	-339.63678	632.15911	981.10450	-276.13574	649.25567	1386.20034	-335.97296	776.04895	1399.49752	-173.25170	703.85815	1282.82346	-498.70991	785.29385	1343.46273	-322.58957	786.46088	1327.97864	-361.66090	819.35349	1294.41427	-79.87630	787.43671	1077.92790	-25.56722	828.85461	1118.06119	20.34960	945.80787	1042.15647	-17.54906	1040.60935	947.86577	-46.25480	1031.95189	933.07598	-15.17122	717.27115	1158.67580	-531.86986	674.99627	939.89255	-433.95173	687.97654	949.32495	-511.31472	751.40915	853.41982	-512.38354	780.75085	699.05817	-512.98997	750.25419	694.72521	-528.47637	752.54831	860.25219	-117.60533	763.36032	863.89893	-323.75505	769.84122	853.76193	-129.59506	763.45454	869.75922	-294.72350	
